<?xml version="1.0" encoding="utf-8"?>
<!-- Generator: Adobe Illustrator 25.4.1, SVG Export Plug-In . SVG Version: 6.00 Build 0)  -->
<svg version="1.1" id="Layer_1" xmlns="http://www.w3.org/2000/svg" xmlns:xlink="http://www.w3.org/1999/xlink" x="0px" y="0px"
	 viewBox="0 0 289 492" style="enable-background:new 0 0 289 492;" xml:space="preserve">
<g>
	<g>
		<path fill="#FFFFFF" d="M97.1,246.1L281.2,62c5.1-5.1,7.9-11.8,7.9-19c0-7.2-2.8-14-7.9-19L265.1,7.9C260,2.8,253.2,0,246,0s-14,2.8-19,7.9
			L7.8,227C2.8,232.1,0,238.9,0,246.1c0,7.2,2.8,14,7.8,19.1l218.9,218.9c5.1,5.1,11.8,7.9,19,7.9c7.2,0,14-2.8,19-7.9L281,468
			c10.5-10.5,10.5-27.6,0-38.1L97.1,246.1z"/>
	</g>
</g>
</svg>
