<?xml version="1.0" encoding="utf-8"?>
<!-- Generator: Adobe Illustrator 25.4.1, SVG Export Plug-In . SVG Version: 6.00 Build 0)  -->
<svg version="1.1" id="Layer_1" xmlns="http://www.w3.org/2000/svg" xmlns:xlink="http://www.w3.org/1999/xlink" x="0px" y="0px"
	 viewBox="0 0 175 31.6" style="enable-background:new 0 0 175 31.6;" xml:space="preserve">
<style type="text/css">
	.st0{fill:#EDEDEC;}
	.st1{fill:#CDAC5A;}
	.st2{fill:#EBCD81;}
	.st3{fill:#A5843F;}
</style>
<g>
	<g>
		<path class="st0" d="M101.4,20.4v1.3h-6.5V9.9h1.3v10.5H101.4z"/>
		<path class="st0" d="M107.7,11.2v3.9h5.9v1.3h-5.9v4h6.9v1.3h-8.2V9.9h8v1.3H107.7z"/>
		<path class="st0" d="M124.8,9.9c3.4,0,6.1,2.5,6.1,5.9s-2.6,5.9-6.1,5.9H120V9.9H124.8z M121.3,20.4h3.4c2.6,0,4.7-2,4.7-4.6
			c0-2.6-2.1-4.6-4.7-4.6h-3.4V20.4z"/>
		<path class="st0" d="M146,15.9v4.3c-1.2,0.9-2.8,1.5-4.4,1.5c-3.4,0-6.1-2.6-6.1-6s2.7-5.9,6.2-5.9c1.6,0,3.2,0.6,4.3,1.6l-0.8,1
			c-1-0.9-2.3-1.4-3.6-1.4c-2.7,0-4.8,2.1-4.8,4.7c0,2.6,2.2,4.7,4.9,4.7c1.1,0,2.2-0.4,3.1-1v-3.6H146z"/>
		<path class="st0" d="M153.5,11.2v3.9h5.9v1.3h-5.9v4h6.9v1.3h-8.2V9.9h8v1.3H153.5z"/>
		<path class="st0" d="M171,17.9c-0.3,0-0.5,0-0.8,0h-3.1v3.7h-1.3V9.9h4.5c2.9,0,4.6,1.4,4.6,4c0,2-0.9,3.3-2.6,3.8l2.8,4h-1.5
			L171,17.9z M170.2,16.7c2.1,0,3.3-0.9,3.3-2.8c0-1.8-1.2-2.7-3.3-2.7h-3.1v5.5H170.2z"/>
	</g>
	<g>
		<path class="st0" d="M9.7,11.1l-1,2.2C7.5,12.5,6,12.1,5,12.1c-0.9,0-1.5,0.3-1.5,1c0,2.2,6.3,1,6.3,5.2c0,2.3-2,3.6-4.6,3.6
			c-1.9,0-3.9-0.7-5.2-1.9l1.1-2.2c1.2,1.1,2.9,1.8,4.2,1.8c1.1,0,1.7-0.4,1.7-1.1c0-2.2-6.3-0.9-6.3-5.1c0-2.1,1.8-3.5,4.6-3.5
			C6.9,9.8,8.6,10.3,9.7,11.1z"/>
		<path class="st0" d="M20.1,12.2v9.5h-2.7v-9.5h-3.6V9.9h9.8v2.3H20.1z"/>
		<path class="st0" d="M29.2,19.4l-0.9,2.3h-2.7l5.1-11.8h2.7l5,11.8h-2.8l-0.9-2.3H29.2z M31.9,12.7l-1.9,4.6h3.7L31.9,12.7z"/>
		<path class="st0" d="M48.1,18.3h-0.3h-2.5v3.4h-2.7V9.9h5.1c3.1,0,4.8,1.5,4.8,4.1c0,1.8-0.8,3.1-2.2,3.8l2.5,3.9h-3L48.1,18.3z
			 M47.9,16.1c1.5,0,2.3-0.7,2.3-2c0-1.3-0.8-2-2.3-2h-2.5v4H47.9z"/>
	</g>
	<g>
		<g>
			<polygon class="st1" points="78.9,10.8 73.8,14.8 68.8,10.8 72.8,15.8 68.8,20.9 73.8,16.9 78.9,20.9 74.9,15.8 			"/>
			<polygon class="st1" points="75.5,14.1 75.5,14.1 73.8,5.7 72.2,14.1 63.7,15.8 72.2,17.5 72.2,17.5 73.8,25.9 75.5,17.5 
				84,15.8 			"/>
			<g>
				<polygon class="st2" points="73.8,5.7 72.2,14.1 63.7,15.8 73.8,15.8 				"/>
				<polygon class="st3" points="73.8,25.9 75.5,17.5 84,15.8 73.8,15.8 				"/>
			</g>
		</g>
		<g>
			<g>
				<path class="st1" d="M75.4,0c6.8,0.9,12,7.2,12,13.5c0,0.6,0,1.1-0.1,1.6c0,0,0,0.1,0,0.1c0.1,0.5,0.3,1,0.4,1.5
					c0.1,0.5,0.2,1,0.2,1.5c-0.1-0.5-0.3-1-0.5-1.4c-0.1-0.2-0.2-0.5-0.3-0.7c-0.2,0.9-0.4,1.7-0.7,2.5c0,0.3,0.1,0.6,0.1,0.9
					c0,0.5,0,1,0,1.5c0,0.5-0.1,1-0.2,1.5c0-0.5,0-1-0.1-1.5c-0.1-0.5-0.2-1-0.3-1.4c-0.4,0.8-0.9,1.6-1.5,2.4c0,0.2,0,0.4,0,0.6
					c0,0.5-0.1,1-0.2,1.5c-0.1,0.5-0.2,1-0.4,1.5c-0.2,0.5-0.3,1-0.5,1.4c0.1-0.5,0.2-1,0.3-1.5c0.1-0.5,0.1-1,0.1-1.5
					c0-0.4,0-0.7,0-1.1c-0.4,0.4-0.8,0.7-1.2,1.1c-1.4,1.1-1.8,3.1-0.9,4.7l0.1,0.2c-1.4,1-3.8,2.2-6.3,2.7c1.8,0,4.4-0.4,6.8-1.8
					C87,27,90.1,21.9,90.1,16C90.1,6.9,83.9,0.7,75.4,0z"/>
				<path class="st1" d="M66,28.7c0.9-1.6,0.5-3.5-0.9-4.7c-0.4-0.3-0.8-0.7-1.2-1.1c0,0.4,0,0.7,0,1.1c0,0.5,0,1,0.1,1.5
					c0.1,0.5,0.1,1,0.3,1.5c-0.2-0.4-0.4-0.9-0.5-1.4c-0.1-0.5-0.3-1-0.4-1.5c-0.1-0.5-0.2-1-0.2-1.5c0-0.2,0-0.4,0-0.6
					c-0.6-0.7-1.1-1.5-1.5-2.4c-0.1,0.5-0.2,1-0.3,1.4c-0.1,0.5-0.1,1-0.1,1.5c-0.1-0.5-0.1-1-0.2-1.5c0-0.5,0-1,0-1.5
					c0-0.3,0-0.6,0.1-0.9c-0.3-0.8-0.6-1.6-0.7-2.5c-0.1,0.2-0.2,0.4-0.3,0.7c-0.2,0.5-0.3,0.9-0.5,1.4c0-0.5,0.1-1,0.2-1.5
					c0.1-0.5,0.2-1,0.4-1.5c0,0,0-0.1,0-0.1c-0.1-0.5-0.1-1.1-0.1-1.6c0-6.3,5.3-12.6,12-13.5c-8.4,0.7-14.7,6.9-14.7,16
					c0,5.9,3.2,11,7.9,13.8c2.4,1.4,5,1.8,6.8,1.8c-2.5-0.5-5-1.7-6.3-2.7L66,28.7z"/>
			</g>
			<g>
				<path class="st3" d="M88.8,16.3c0,5.6-2.6,10.6-6.5,13.6C87,27,90.1,21.9,90.1,16c0-9.2-6.3-15.3-14.7-16
					C82.9,0.9,88.8,7.8,88.8,16.3z"/>
				<path class="st3" d="M65.4,29.8c-3.9-2.9-6.5-7.9-6.5-13.6c0-8.4,5.8-15.4,13.3-16.3c-8.4,0.7-14.7,6.9-14.7,16
					C57.5,21.9,60.7,27,65.4,29.8z"/>
			</g>
		</g>
	</g>
</g>
</svg>
