<?xml version="1.0" encoding="utf-8"?>
<!-- Generator: Adobe Illustrator 25.4.1, SVG Export Plug-In . SVG Version: 6.00 Build 0)  -->
<svg version="1.1" id="Layer_1" xmlns="http://www.w3.org/2000/svg" xmlns:xlink="http://www.w3.org/1999/xlink" x="0px" y="0px"
	 viewBox="0 0 147.8 143.3" style="enable-background:new 0 0 147.8 143.3;" xml:space="preserve">
<style type="text/css">
	.st0{fill:#CDAC5A;}
	.st1{fill:#EBCD81;}
	.st2{fill:#A5843F;}
</style>
<g>
	<g>
		<polygon class="st0" points="96.7,48.8 73.9,66.9 51,48.8 69.1,71.6 51,94.5 73.9,76.4 96.7,94.5 78.6,71.6 		"/>
		<polygon class="st0" points="81.5,64 81.5,64 73.9,25.8 66.2,64 28,71.6 66.2,79.3 66.2,79.3 73.9,117.5 81.5,79.3 119.7,71.6 		
			"/>
		<g>
			<polygon class="st1" points="73.9,25.8 66.2,64 28,71.6 73.9,71.6 			"/>
			<polygon class="st2" points="73.9,117.5 81.5,79.3 119.7,71.6 73.9,71.6 			"/>
		</g>
	</g>
	<g>
		<g>
			<path class="st0" d="M81.1,0c30.6,4,54.4,32.8,54.4,61.2c0,2.5-0.1,5-0.4,7.4c0.1,0.2,0.1,0.4,0.2,0.6c0.6,2.2,1.2,4.4,1.6,6.7
				c0.4,2.2,0.8,4.5,0.8,6.8c-0.5-2.2-1.2-4.3-2-6.4c-0.4-1-0.8-2-1.3-3.1c-0.7,4-1.8,7.8-3.2,11.4c0.2,1.4,0.3,2.8,0.4,4.3
				c0.1,2.3,0.2,4.6,0.1,6.9c-0.1,2.3-0.3,4.6-0.7,6.8c0-2.3-0.2-4.5-0.5-6.7c-0.3-2.2-0.8-4.4-1.3-6.5c-1.9,3.8-4.1,7.4-6.7,10.7
				c0,0.9,0,1.8-0.1,2.7c-0.2,2.3-0.6,4.6-1.1,6.9c-0.5,2.2-1,4.5-1.7,6.6c-0.7,2.2-1.5,4.3-2.5,6.3c0.6-2.2,1-4.4,1.2-6.6
				c0.3-2.2,0.4-4.4,0.5-6.7c0-1.7,0-3.3-0.1-5c-1.7,1.7-3.4,3.3-5.2,4.9c-6.3,5.2-8.1,14.1-4.2,21.3l0.5,0.9
				c-6.2,4.7-17.3,9.9-28.6,12.2c8,0,19.8-1.9,30.9-8.2c21.5-12.8,35.8-36,35.8-62.5C147.8,31.2,119.4,3.1,81.1,0z"/>
			<path class="st0" d="M38.5,130.2c4-7.2,2.2-16.1-4.2-21.3c-1.8-1.5-3.6-3.1-5.2-4.9c-0.1,1.6-0.1,3.3-0.1,5
				c0.1,2.2,0.2,4.4,0.5,6.7c0.3,2.2,0.6,4.4,1.2,6.6c-1-2-1.8-4.2-2.5-6.3c-0.7-2.2-1.2-4.4-1.7-6.6c-0.5-2.2-0.8-4.5-1.1-6.9
				c-0.1-0.9-0.1-1.8-0.1-2.7c-2.6-3.3-4.9-6.8-6.7-10.7c-0.5,2.1-1,4.3-1.3,6.5c-0.3,2.2-0.6,4.4-0.5,6.7c-0.4-2.2-0.6-4.5-0.7-6.8
				c-0.1-2.3,0-4.6,0.1-6.9c0.1-1.4,0.2-2.8,0.4-4.3c-1.4-3.6-2.5-7.4-3.2-11.4c-0.5,1-0.9,2-1.3,3.1c-0.8,2.1-1.6,4.2-2,6.4
				c0.1-2.3,0.4-4.5,0.8-6.8c0.4-2.2,1-4.5,1.6-6.7c0.1-0.2,0.1-0.4,0.2-0.6c-0.3-2.4-0.4-4.9-0.4-7.4C12.2,32.8,36,4,66.7,0
				C28.4,3.1,0,31.2,0,72.6c0,26.5,14.4,49.7,35.8,62.5c11.1,6.3,22.9,8.2,30.9,8.2c-11.3-2.2-22.4-7.5-28.6-12.2L38.5,130.2z"/>
		</g>
		<g>
			<path class="st2" d="M141.6,73.6c0,25.5-11.7,48.1-29.6,61.5c21.5-12.8,35.8-36,35.8-62.5c0-41.5-28.4-69.5-66.7-72.6
				C115.1,3.9,141.6,35.4,141.6,73.6z"/>
			<path class="st2" d="M35.8,135.1c-17.9-13.3-29.6-36-29.6-61.5C6.2,35.4,32.7,4,66.7,0C28.4,3.1,0,31.2,0,72.6
				C0,99.1,14.4,122.4,35.8,135.1z"/>
		</g>
	</g>
</g>
</svg>
