<?xml version="1.0" encoding="utf-8"?>
<!-- Generator: Adobe Illustrator 25.4.1, SVG Export Plug-In . SVG Version: 6.00 Build 0)  -->
<svg version="1.1" id="Layer_1" xmlns="http://www.w3.org/2000/svg" xmlns:xlink="http://www.w3.org/1999/xlink" x="0px" y="0px"
	 viewBox="0 0 557.3 557.3" style="enable-background:new 0 0 557.3 557.3;" xml:space="preserve">
<style type="text/css">
	.st0{fill:#CDAC5A;}
	.st1{fill:#EBCD81;}
	.st2{fill:#A5843F;}
</style>
<g>
	<g>
		<polygon class="st0" points="365.8,194 278.6,262.4 193.2,194 261.5,279.5 193.2,366.7 278.6,298.3 365.8,366.7 297.4,279.5 		"/>
		<polygon class="st0" points="307.7,250.4 307.7,250.4 278.6,106.8 251.3,250.4 106,279.5 251.3,308.5 251.3,308.5 278.6,452.1 
			307.7,308.5 453,279.5 		"/>
		<g>
			<polygon class="st1" points="278.6,106.8 251.3,250.4 106,279.5 278.6,279.5 			"/>
			<polygon class="st2" points="278.6,452.1 307.7,308.5 453,279.5 278.6,279.5 			"/>
		</g>
	</g>
	<g>
		<g>
			<path class="st0" d="M306,9.4c116.2,15.4,205.1,123.1,205.1,230.8c0,10.3,0,18.8-1.7,27.3v1.7c1.7,8.5,5.1,17.1,6.8,25.6
				s3.4,17.1,3.4,25.6c-1.7-8.5-5.1-17.1-8.5-23.9c-1.7-3.4-3.4-8.5-5.1-12c-3.4,15.4-6.8,29.1-12,42.7c0,5.1,1.7,10.3,1.7,15.4
				c0,8.5,0,17.1,0,25.6s-1.7,17.1-3.4,25.6c0-8.5,0-17.1-1.7-25.6s-3.4-17.1-5.1-23.9c-6.8,13.7-15.4,27.4-25.6,41
				c0,3.4,0,6.8,0,10.3c0,8.5-1.7,17.1-3.4,25.6s-3.4,17.1-6.8,25.6c-3.4,8.5-5.1,17.1-8.5,23.9c1.7-8.5,3.4-17.1,5.1-25.6
				c1.7-8.5,1.7-17.1,1.7-25.6c0-6.8,0-12,0-18.8c-6.8,6.8-13.7,12-20.5,18.8c-23.9,18.8-30.8,53-15.4,80.3l1.7,3.4
				c-23.9,17.1-65,37.6-107.7,46.2c30.8,0,75.2-6.8,116.2-30.8c82-47.9,135-135,135-235.9C557.3,127.4,451.3,21.4,306,9.4z"/>
			<path class="st0" d="M145.3,500c15.4-27.4,8.5-59.8-15.4-80.3c-6.8-5.1-13.7-12-20.5-18.8c0,6.8,0,12,0,18.8
				c0,8.5,0,17.1,1.7,25.6c1.7,8.5,1.7,17.1,5.1,25.6c-3.4-6.8-6.8-15.4-8.5-23.9s-5.1-17.1-6.8-25.6c-1.7-8.5-3.4-17.1-3.4-25.6
				c0-3.4,0-6.8,0-10.3c-10.3-12-18.8-25.6-25.6-41c-1.7,8.5-3.4,17.1-5.1,23.9C65,376.9,65,385.5,65,394
				c-1.7-8.5-1.7-17.1-3.4-25.6c0-8.5,0-17.1,0-25.6c0-5.1,0-10.3,1.7-15.4c-5.1-13.7-10.3-27.4-12-42.7c-1.7,3.4-3.4,6.8-5.1,12
				c-3.4,8.5-5.1,15.4-8.5,23.9c0-8.5,1.7-17.1,3.4-25.6c1.7-8.5,3.4-17.1,6.8-25.6v-1.7c-1.7-8.5-1.7-18.8-1.7-27.3
				c0-107.7,90.6-215.4,205.1-230.8C107.7,21.4,0,127.4,0,282.9c0,100.9,54.7,188,135,235.9c41,23.9,85.5,30.8,116.2,30.8
				c-42.7-8.5-85.5-29.1-107.7-46.2L145.3,500z"/>
		</g>
		<g>
			<path class="st2" d="M535,288c0,95.7-44.4,181.2-111.1,232.5c80.3-49.6,133.3-136.8,133.3-237.6C557.3,125.6,449.6,21.4,306,9.4
				C434.2,24.8,535,142.7,535,288z"/>
			<path class="st2" d="M135,518.8c-66.7-49.6-111.1-135-111.1-232.5c0-143.6,99.1-263.2,227.3-278.6C107.7,19.7,0,125.6,0,281.2
				C0,383.8,54.7,470.9,135,518.8z"/>
		</g>
	</g>
</g>
</svg>
