<?xml version="1.0" encoding="utf-8"?>
<!-- Generator: Adobe Illustrator 26.2.1, SVG Export Plug-In . SVG Version: 6.00 Build 0)  -->
<svg version="1.1" id="Layer_1" xmlns="http://www.w3.org/2000/svg" xmlns:xlink="http://www.w3.org/1999/xlink" x="0px" y="0px"
	 viewBox="0 0 121.4 121.4" style="enable-background:new 0 0 121.4 121.4;" xml:space="preserve">
<style type="text/css">
	.st0{fill:#FFFFFF;}
</style>
<g id="logo-etherscan" transform="translate(-219.378 -213.334)">
	<g id="circle">
	</g>
</g>
<g id="Group_3">
	<path id="Path_1" class="st0" d="M25.2,57.7c0-2.8,2.3-5.1,5.1-5.1c0,0,0,0,0,0l8.6,0c2.8,0,5.2,2.3,5.2,5.2l0,0v32.4
		c1-0.3,2.2-0.6,3.6-0.9c1.9-0.5,3.3-2.2,3.3-4.2V44.9c0-2.8,2.3-5.2,5.2-5.2h8.6c2.8,0,5.2,2.3,5.2,5.2v37.3c0,0,2.1-0.9,4.2-1.8
		c1.6-0.7,2.6-2.2,2.6-4V32c0-2.8,2.3-5.2,5.1-5.2h8.6c2.8,0,5.1,2.3,5.1,5.2v36.6c7.4-5.4,15-11.9,21-19.7c1.8-2.3,2.3-5.3,1.3-8.1
		C106.9,9.2,72.4-7.5,40.7,3.5C9.1,14.5-7.6,49,3.4,80.7c1.2,3.6,2.8,7,4.7,10.3c1.5,2.6,4.3,4.1,7.3,3.8c1.6-0.1,3.6-0.3,6.1-0.6
		c2.2-0.2,3.8-2.1,3.8-4.3L25.2,57.7"/>
	<path id="Path_2" class="st0" d="M25.1,109.7c27.1,19.7,65,13.7,84.7-13.4c7.5-10.4,11.6-22.9,11.6-35.7c0-1.4-0.1-2.8-0.2-4.2
		C99.1,89.5,58.2,105,25.1,109.7"/>
</g>
</svg>
