<?xml version="1.0" encoding="utf-8"?>
<!-- Generator: Adobe Illustrator 25.4.1, SVG Export Plug-In . SVG Version: 6.00 Build 0)  -->
<svg version="1.1" id="Layer_1" xmlns="http://www.w3.org/2000/svg" xmlns:xlink="http://www.w3.org/1999/xlink" x="0px" y="0px"
	 viewBox="0 0 512 512" style="enable-background:new 0 0 512 512;" xml:space="preserve">
<style type="text/css">
	.st0{fill:#FFFFFF;}
</style>
<path class="st0" d="M256,94.5c-49.2,0-89.3,40.1-89.3,89.3c0,49.2,40.1,89.3,89.3,89.3s89.3-40.1,89.3-89.3
	C345.3,134.5,305.2,94.5,256,94.5z"/>
<path class="st0" d="M256,0C114.8,0,0,114.8,0,256c0,65.3,24.6,125,65,170.3c8.7-38,28.5-72.7,57.5-99.7c20.3-19,44.2-33.1,69.9-42
	c-33.4-21.2-55.7-58.5-55.7-100.9c0-65.8,53.5-119.3,119.3-119.3S375.3,118,375.3,183.8c0,42.4-22.2,79.7-55.6,100.9
	c27.9,9.5,53.4,25.4,74.9,46.8c26.2,26.2,44.3,59.1,52.5,94.8c40.4-45.3,65-104.9,65-170.3C512,114.8,397.2,0,256,0z"/>
<path class="st0" d="M91.1,451.6C135.7,489.3,193.2,512,256,512s120.3-22.7,164.9-60.4c-4.1-37.3-20.9-72.3-47.6-99
	c-31.3-31.3-73-48.6-117.3-48.6C171.6,304.1,100.3,368.4,91.1,451.6z"/>
</svg>