<svg id="svg14514" height="512" viewBox="0 0 16.933333 16.933334" width="512" xmlns="http://www.w3.org/2000/svg" xmlns:svg="http://www.w3.org/2000/svg">
    <g id="layer1" transform="translate(0 -280.067)">
        <path id="path6309" fill="#FF0000" d="m8.4599484 281.38955c-.245581.002-.489368.1385-.6232185.37311l-7.11532853 12.46901c-.1878251.32921-.1931405.68968-.056327.96841.1368134.27873.42289933.47646.75189283.47646h14.1133518c.329014 0 .615045-.19772.75189-.47646.136848-.27874.129064-.63923-.05891-.96841l-7.1210136-12.47108a.26460982.26460982 0 0 0 -.0036-.008c-.144886-.235-.393136-.3653-.638717-.36304zm.0077 3.70314c.728829 0 1.414441.59561 1.320331 1.35547l-.529682 4.27364c-.05093.41125-.39283.72244-.790649.72244-.397823 0-.7423048-.31119-.7932345-.72244l-.5291666-4.27364c-.094107-.75986.5935715-1.35547 1.3224011-1.35547zm0 6.88123c.581366 0 1.056264.4749 1.056264 1.05627 0 .58136-.474898 1.05885-1.056264 1.05885-.5813667 0-1.0588523-.47749-1.0588523-1.05885 0-.58137.4774856-1.05627 1.0588523-1.05627z" font-variant-ligatures="normal" font-variant-position="normal" font-variant-caps="normal" font-variant-numeric="normal" font-variant-alternates="normal" font-feature-settings="normal" text-indent="0" text-align="start" text-decoration-line="none" text-decoration-style="solid" text-decoration-color="rgb(0,0,0)" text-transform="none" text-orientation="mixed" white-space="normal" shape-padding="0" isolation="auto" mix-blend-mode="normal" solid-color="rgb(0,0,0)" solid-opacity="1" vector-effect="none" />
    </g>
</svg>